<svg xmlns="http://www.w3.org/2000/svg" viewBox="0 0 340.2 212.6" width="150">
  <g fill="#221f1f">
    <path d="M65.5 55.1c-1.7 1-4 1.5-6 1.5-5.4 0-9-3.4-9-8.9 0-5.8 4.1-9.5 9.4-9.5 1.8 0 3.5.4 4.7 1.1v3.1c-1.3-.8-2.8-1.2-4.3-1.2-3.8 0-5.9 2.8-5.9 6.3 0 3.7 2.2 6.2 5.5 6.2 1.9 0 3.4-.6 4.5-1.3l1.1 2.7zM66.1 47.4c0-5.4 3.5-9.2 8.9-9.2s8.9 3.8 8.9 9.2c0 5.4-3.5 9.2-8.9 9.2s-8.9-3.7-8.9-9.2zm13.9 0c0-3.8-1.9-6.2-5-6.2s-5 2.5-5 6.2c0 3.8 2 6.2 5 6.2 3 .1 5-2.4 5-6.2zM86.4 45.6h9.5v3.2h-9.5v-3.2zM98.2 47.4c0-5.4 3.5-9.2 8.9-9.2s8.9 3.8 8.9 9.2c0 5.4-3.5 9.2-8.9 9.2s-8.9-3.7-8.9-9.2zm13.9 0c0-3.8-1.9-6.2-5-6.2s-5 2.5-5 6.2c0 3.8 2 6.2 5 6.2 3.1.1 5-2.4 5-6.2zM118.6 38.5h5.4c4.3 0 6.6 2.3 6.6 5.9 0 3.5-2.3 6-6.9 6h-1.4v5.9h-3.8V38.5zm5.2 8.9c2.2 0 3.1-1.2 3.1-3 0-1.7-.8-3-3-3h-1.5v5.9h1.4zM133.3 38.5h11.1l-1.1 3H137v4.3h6.3v2.9H137v4.6h7v3h-10.8V38.5zM147.6 38.5h5.9c4.9 0 6.5 2.7 6.5 5.2 0 2.1-1.1 3.9-3.4 4.6v.1c.4.3 1.1 1.2 2 2.6l3.2 5.2h-4.1l-2.7-4.4c-.7-1.2-1.4-2-1.8-2.1h-1.9v6.5h-3.8V38.5zm5.8 8.3c1.8 0 2.8-1.1 2.8-2.7 0-1.5-.9-2.7-2.9-2.7h-1.9v5.4h2zM170.2 38.4h2.7l7.4 17.8h-3.9l-1.6-3.9h-6.5l-1.5 3.9h-3.9l7.3-17.8zm3.6 11.1l-1.4-3.7c-.3-.7-.7-1.7-.9-2.4h-.1c-.2.7-.5 1.7-.8 2.4l-1.4 3.7h4.6zM183.4 41.5h-5.3v-3H193l-.8 3h-5v14.7h-3.8V41.5zM195 38.5h3.8v17.7H195V38.5zM201.2 38.5h3.9l3.8 9.8c.4 1.2.8 2.3 1.1 3.3h.1c.3-1 .7-2.2 1.2-3.3l3.8-9.8h4l-7.7 17.8h-2.7l-7.5-17.8zM220.7 38.5h11.1l-1.1 3h-6.3v4.3h6.3v2.9h-6.3v4.6h7v3h-10.8V38.5zM235 52.4c1.2.7 2.6 1.2 4.2 1.2 1.4 0 2.9-.6 2.9-2.2 0-3.5-7.7-2.5-7.7-8.3 0-2.8 2.2-4.9 6-4.9 1.9 0 3.5.4 4.6.9v3.2c-1.6-.8-3-1.2-4.4-1.2-1.2 0-2.4.5-2.4 1.8 0 3.3 7.7 2.2 7.7 8.2 0 3.4-2.8 5.4-6.5 5.4-2.3 0-4-.5-5.6-1.4l1.2-2.7zM270.2 49.5c0 5-3.3 7.1-7.8 7.1-4.4 0-7.6-2.1-7.6-7.1v-11h3.8v10.8c0 2.9 1.5 4.2 3.9 4.2s3.9-1.4 3.9-4.2V38.5h3.8v11zM273.8 38.5h3.8v7.7h.1l6-7.7h4.1l-7.1 8.9 7.7 8.8h-4.5l-6.2-7.3h-.1v7.3h-3.8V38.5zM78.7 150.6c-22.1 0-40.1-18-40.1-40.1s18-40.1 40.1-40.1c8.9 0 17.3 2.9 24.3 8.2 2.8 2.2 3.4 6.2 1.2 9s-6.2 3.4-9 1.2c-.8-.6-1.6-1.2-2.5-1.7-.1 0-.1-.1-.2-.1-4.2-2.5-8.9-3.8-13.8-3.8-15 0-27.2 12.2-27.2 27.2s12.2 27.2 27.2 27.2c4.9 0 9.7-1.3 13.8-3.8.1 0 .1-.1.2-.1.9-.5 1.7-1.1 2.5-1.7 2.8-2.2 6.9-1.6 9 1.2 2.2 2.8 1.6 6.9-1.2 9-7 5.6-15.4 8.4-24.3 8.4zm172.2 24.2v-26.5c3.5 1.4 7.3 2.3 11.4 2.3 22.1 0 40.1-18 40.1-40.1s-18-40.1-40.1-40.1c-8.9 0-17.3 2.9-24.4 8.2-2.8 2.2-3.4 6.2-1.2 9s6.2 3.4 9 1.2c4.8-3.7 10.5-5.6 16.5-5.6 15 0 27.2 12.2 27.2 27.2s-12.2 27.2-27.2 27.2c-3.8 0-7.6-1.6-11.4-3.7v-2.3c0-3.6-2.9-6.4-6.4-6.4-3.6 0-6.4 2.9-6.4 6.4v43c0 3.6 2.9 6.4 6.4 6.4 3.6.2 6.5-2.7 6.5-6.2zm-80.5-34.9c5 4.7 11.3 8.1 18.3 9.7 21.5 5 43.1-8.4 48.1-30 5-21.5-8.4-43.1-30-48.1-13.1-3.1-26.8.7-36.5 9.8-5-4.7-11.3-8.1-18.3-9.7-21.5-5-43.1 8.4-48.1 29.9s8.4 43.1 29.9 48.1c3 .7 6.1 1 9.1 1 10.2.1 20-3.8 27.5-10.7zm-21.2-55.8c9.8 2.3 17.5 9.8 20.1 19.5.9 3.4 4.4 5.5 7.9 4.6 3.4-.9 5.5-4.4 4.6-7.9-.8-3.1-2-6-3.4-8.7 6.6-6.8 16.3-9.7 25.6-7.5 14.6 3.4 23.7 18.1 20.3 32.6-3.4 14.6-18.1 23.7-32.7 20.3-10.6-2.5-18.7-11-20.6-21.6-.6-3.5-4-5.8-7.5-5.2-3.5.6-5.8 4-5.2 7.5.8 4.2 2.2 8.2 4.1 11.8-6.6 6.8-16.3 9.7-25.7 7.5-14.6-3.4-23.7-18.1-20.3-32.7 2.9-12.5 14.1-21 26.5-21 2.1.1 4.2.3 6.3.8z"/>
    <path d="M136.1 164.6h3.1l3.8 5.2c.5.6.8 1.2 1.2 1.8.3-.5.6-1.2 1.1-1.9l3.4-5.1h3.2v15h-3.5V172v-1.6c-.1.3-.8 1.2-1 1.6l-2.4 3.7h-1.5l-2.8-3.8c-.3-.4-.7-.9-1-1.5v9.3h-3.5v-15.1zM155.3 164.6h9l-.8 2.8h-4.7v3.2h4.7v2.8h-4.7v3.4h5.5v2.8h-9v-15zM166.8 164.6h3.1l3.8 5.2c.5.6.8 1.2 1.2 1.8.3-.5.6-1.2 1.1-1.9l3.4-5.1h3.2v15h-3.5V172v-1.6c-.1.3-.8 1.2-1 1.6l-2.4 3.7h-1.5l-2.8-3.8c-.3-.4-.7-.9-1-1.5v9.3h-3.5v-15.1zM186 164.6h5c3.3 0 4.7 1.9 4.7 3.8 0 1.1-.6 2.3-1.7 3 1.8.5 2.8 2 2.8 3.6 0 2.2-1.8 4.6-5.4 4.6H186v-15zm4.5 6c1.2 0 1.8-.7 1.8-1.5 0-.9-.6-1.6-1.9-1.6h-1v3.2h1.1zm.4 6.2c1.7 0 2.4-.6 2.4-1.8 0-1-.8-1.6-2.1-1.6h-1.8v3.4h1.5zM199.4 164.6h9l-.8 2.8h-4.7v3.2h4.7v2.8h-4.7v3.4h5.5v2.8h-9v-15zM211.4 164.6h4.8c1.3 0 2.3.2 3.1.5 1.8.8 2.6 2.3 2.6 3.9 0 1.9-1.3 3.3-2.9 3.8.5.3 1.1 1.1 1.9 2.5l2.4 4.3h-4l-1.8-3.4c-.8-1.5-1.3-2-1.6-2.1h-1v5.5h-3.5v-15zm4.6 6.7c.6 0 1-.1 1.4-.3.5-.3.9-.9.9-1.7 0-.8-.4-1.4-1-1.7-.3-.1-.6-.2-1.2-.2H215v3.9h1z"/>
  </g>
</svg>
