<svg xmlns="http://www.w3.org/2000/svg" width="150" viewBox="-4921 -93 117.813 53.82">
  <g fill="#221f1f">
    <path d="M-4912.636-42.626a3.681 3.681 0 0 1-3.938 3.364c-2.621 0-4.262-1.969-4.262-4.922s1.723-4.923 4.348-4.923a3.6 3.6 0 0 1 3.852 3.364h-1.39a2.426 2.426 0 0 0-2.461-2.3c-1.8 0-2.954 1.559-2.954 3.774 0 2.379 1.149 3.856 2.954 3.856a2.447 2.447 0 0 0 2.543-2.3h1.308z"/>
    <path d="M-4910.088-47.138a12.7 12.7 0 0 1-.082 1.8h.082a2.36 2.36 0 0 1 2.051-1.067 2.212 2.212 0 0 1 2.133 1.231 4.456 4.456 0 0 1 .246 2.133v3.61h-1.149v-3.851a2.294 2.294 0 0 0-.328-1.559 1.6 1.6 0 0 0-1.231-.574 1.656 1.656 0 0 0-1.477.738 2.726 2.726 0 0 0-.328 1.641v3.61h-1.148v-9.435h1.149v1.723z"/>
    <path d="M-4899.423-39.426a3.365 3.365 0 0 1-.082-.9h-.082a2.547 2.547 0 0 1-2.215 1.067c-1.477 0-2.461-.82-2.461-2.051a1.759 1.759 0 0 1 1.477-1.808 10.46 10.46 0 0 1 1.477-.328c.41-.082.82-.082 1.559-.164 0-.9-.082-1.149-.328-1.395a1.623 1.623 0 0 0-1.149-.41 1.342 1.342 0 0 0-1.559 1.397h-1.231a2.374 2.374 0 0 1 .738-1.641 3.23 3.23 0 0 1 2.051-.656 2.753 2.753 0 0 1 2.3.985c.328.492.41.9.41 2.461v.82a9.732 9.732 0 0 0 .246 2.543h-1.151zm-3.527-1.892c0 .656.492 1.067 1.395 1.067a1.743 1.743 0 0 0 1.887-2.051v-.492c-2.462.168-3.282.576-3.282 1.476z"/>
    <path d="M-4895.567-46.236v.492a1.4 1.4 0 0 1-.082.574h.082a2.485 2.485 0 0 1 2.133-1.312 1.806 1.806 0 0 1 .656.082v1.067a1.1 1.1 0 0 0-.738-.164 1.913 1.913 0 0 0-1.723 1.067 4.224 4.224 0 0 0-.246 1.723v3.2h-1.149v-6.81h1.067z"/>
    <path d="M-4889.66-46.563v.328h1.557v.9h-1.557v3.692c0 .738 0 .9.164 1.067a1 1 0 0 0 .738.246 1.6 1.6 0 0 0 .656-.082v1.068a8.617 8.617 0 0 1-1.067.164 1.656 1.656 0 0 1-1.477-.738 2.306 2.306 0 0 1-.246-1.231v-4.02h-1.311v-.9h1.313v-1.725h1.149v1.231z"/>
    <path d="M-4885.886-42.544a.493.493 0 0 1-.328-.082 2.511 2.511 0 0 0 .246 1.231 2.075 2.075 0 0 0 1.887 1.067 1.7 1.7 0 0 0 1.8-1.313h1.236a2.82 2.82 0 0 1-3.036 2.3c-2.051 0-3.364-1.395-3.364-3.61 0-2.133 1.313-3.61 3.282-3.61 2.051 0 3.2 1.395 3.2 3.938h-4.923zm3.2-.9a.615.615 0 0 1 .41.082 3.233 3.233 0 0 0-.328-1.231 1.891 1.891 0 0 0-1.641-.9 1.917 1.917 0 0 0-1.969 2.051.74.74 0 0 1 .41-.082h3.118z"/>
    <path d="M-4878.502-46.236v.492a1.4 1.4 0 0 1-.082.574h.082a2.485 2.485 0 0 1 2.133-1.312 1.806 1.806 0 0 1 .656.082v1.067a1.1 1.1 0 0 0-.738-.164 1.913 1.913 0 0 0-1.723 1.067 4.224 4.224 0 0 0-.246 1.723v3.2h-1.149v-6.81h1.067z"/>
    <path d="M-4873.908-42.544a.493.493 0 0 1-.328-.082 2.511 2.511 0 0 0 .246 1.231 2.075 2.075 0 0 0 1.887 1.067 1.7 1.7 0 0 0 1.8-1.313h1.236a2.82 2.82 0 0 1-3.036 2.3c-2.051 0-3.364-1.395-3.364-3.61 0-2.133 1.313-3.61 3.282-3.61 2.051 0 3.2 1.395 3.2 3.938h-4.923zm3.2-.9a.615.615 0 0 1 .41.082 3.233 3.233 0 0 0-.328-1.231 1.891 1.891 0 0 0-1.641-.9 1.917 1.917 0 0 0-1.969 2.051.74.74 0 0 1 .41-.082h3.118z"/>
    <path d="M-4862.996-39.426V-40a2.039 2.039 0 0 1 .082-.656h-.082a2.445 2.445 0 0 1-2.215 1.395c-1.723 0-2.871-1.395-2.871-3.528s1.149-3.61 2.871-3.61a2.229 2.229 0 0 1 2.128 1.312h.082a14.524 14.524 0 0 1-.082-1.892v-1.8h1.149v9.353zm-3.774-3.364c0 1.559.656 2.543 1.8 2.543s1.969-1.149 1.969-2.625c0-1.559-.82-2.625-1.887-2.625s-1.882 1.066-1.882 2.707z"/>
    <path d="M-4855.448-48.861h3.036a4.163 4.163 0 0 1 2.543.574 2.6 2.6 0 0 1 1.067 2.3 2.918 2.918 0 0 1-1.231 2.461 4.232 4.232 0 0 1-2.379.41h-1.8v3.692h-1.236zm1.231 4.348v.328h1.969a3.6 3.6 0 0 0 1.231-.164 1.712 1.712 0 0 0 .9-1.641 1.754 1.754 0 0 0-.738-1.477 2.467 2.467 0 0 0-1.477-.328h-1.967v3.282z"/>
    <path d="M-4846.341-46.236v.492a1.4 1.4 0 0 1-.082.574h.082a2.485 2.485 0 0 1 2.133-1.312 1.806 1.806 0 0 1 .656.082v1.067a1.1 1.1 0 0 0-.738-.164 1.913 1.913 0 0 0-1.723 1.067 4.224 4.224 0 0 0-.246 1.723v3.2h-1.149v-6.81h1.067z"/>
    <path d="M-4838.466-39.426a3.365 3.365 0 0 1-.082-.9h-.082a2.547 2.547 0 0 1-2.215 1.067c-1.477 0-2.461-.82-2.461-2.051a1.759 1.759 0 0 1 1.477-1.808 10.46 10.46 0 0 1 1.477-.328c.41-.082.82-.082 1.559-.164 0-.9-.082-1.149-.328-1.395a1.623 1.623 0 0 0-1.149-.41 1.342 1.342 0 0 0-1.559 1.397h-1.231a2.374 2.374 0 0 1 .738-1.641 3.23 3.23 0 0 1 2.051-.656 2.753 2.753 0 0 1 2.3.985c.328.492.41.9.41 2.461v.82a9.732 9.732 0 0 0 .246 2.543h-1.151zm-3.527-1.892c0 .656.492 1.067 1.395 1.067a1.743 1.743 0 0 0 1.887-2.051v-.492c-2.38.168-3.282.576-3.282 1.476z"/>
    <path d="M-4830.015-41.806a2.737 2.737 0 0 1-2.871 2.543c-1.887 0-3.118-1.477-3.118-3.61a3.214 3.214 0 0 1 3.282-3.528 2.6 2.6 0 0 1 2.789 2.461h-1.231a1.561 1.561 0 0 0-1.641-1.477c-1.231 0-1.969.985-1.969 2.625s.738 2.625 1.969 2.625a1.624 1.624 0 0 0 1.641-1.559h1.149z"/>
    <path d="M-4827.144-46.563v.328h1.559v.9h-1.559v3.692c0 .738 0 .9.164 1.067a1 1 0 0 0 .738.246 1.6 1.6 0 0 0 .656-.082v1.068c-.574.082-.738.164-.985.164a1.656 1.656 0 0 1-1.477-.738 2.306 2.306 0 0 1-.246-1.231v-4.02h-1.311v-.9h1.313v-1.725h1.149z"/>
    <path d="M-4824.354-48.861h1.149v1.395h-1.149zm1.149 2.625v6.81h-1.149v-6.81z"/>
    <path d="M-4815.658-41.806a2.737 2.737 0 0 1-2.871 2.543c-1.887 0-3.118-1.477-3.118-3.61a3.214 3.214 0 0 1 3.282-3.528 2.6 2.6 0 0 1 2.789 2.461h-1.231a1.561 1.561 0 0 0-1.641-1.477c-1.231 0-1.969.985-1.969 2.625s.738 2.625 1.969 2.625a1.624 1.624 0 0 0 1.641-1.559h1.149z"/>
    <path d="M-4813.196-42.544a.493.493 0 0 1-.328-.082 2.511 2.511 0 0 0 .246 1.231 2.075 2.075 0 0 0 1.887 1.067 1.7 1.7 0 0 0 1.8-1.313h1.236a2.82 2.82 0 0 1-3.036 2.3c-2.051 0-3.364-1.395-3.364-3.61 0-2.133 1.313-3.61 3.282-3.61 2.051 0 3.2 1.395 3.2 3.938h-4.923zm3.2-.9a.615.615 0 0 1 .41.082 3.233 3.233 0 0 0-.328-1.231 1.891 1.891 0 0 0-1.641-.9 1.917 1.917 0 0 0-1.969 2.051.74.74 0 0 1 .41-.082h3.118z"/>
    <path d="M-4920.59-54.85h112.398v.82h-112.398z"/>
    <path d="M-4916.077-79.135v-10.256a5.593 5.593 0 0 1 1.477-.164c4.676 0 5.825 3.2 5.825 5.5 0 3.118-1.641 4.84-5.989 4.84h-1.313zm-4.595-10.666c.82 0 2.133.492 2.133 2.543v17.64a2.253 2.253 0 0 1-2.461 2.543v.246h7.384v-.246a2.321 2.321 0 0 1-2.461-2.543v-8.943c1.559 0 3.692.082 6.153 4.1l2.789 4.923s.574.82.82 1.231c.492.738.738.985.985 1.395h4.266v-.246c-.738-.082-1.8-.082-4.02-3.692l-2.133-3.938a9.149 9.149 0 0 0-3.856-4.023v-.082c3.364-.656 4.923-2.954 4.923-5.415 0-2.3-1.313-5.907-6.81-5.907h-8.04v.328h.328z"/>
    <path d="M-4890.398-89.883a2.259 2.259 0 0 0-2.461 2.543v17.722a2.321 2.321 0 0 0 2.461 2.543v.246h-7.384v-.246a2.293 2.293 0 0 0 2.461-2.543V-87.34a2.277 2.277 0 0 0-2.461-2.543v-.246h7.384z"/>
    <path d="M-4880.39-79.135v-9.927a5.524 5.524 0 0 1 2.051-.328c2.789 0 4.676 2.461 4.676 5.333a4.9 4.9 0 0 1-2.624 4.51 5.387 5.387 0 0 1-2.625.41zm3.86 12.306a11.168 11.168 0 0 0 4.676-.9 6.014 6.014 0 0 0 3.118-5.087 5.757 5.757 0 0 0-1.894-4.268c-1.395-1.313-3.282-1.641-5.251-1.8v-.082c2.871-.738 5-2.543 5-5.5s-2.617-5.581-6.719-5.581h-7.63v.246h.328c1.313 0 2.215.9 2.215 2.625v17.558c0 1.887-1.149 2.543-2.133 2.543h-.328v.246h8.618zm-1.48-11.65c3.938 0 6.481 1.887 6.481 5.5a6.22 6.22 0 0 1-.9 3.282c-.741 1.15-2.136 2.13-4.601 2.13-3.364 0-3.364-1.559-3.364-2.789v-8.123z"/>
    <path d="M-4858.568-89.965a2.24 2.24 0 0 1 1.969.985l-6.151 18.541c-.656 2.051-1.477 3.118-3.118 3.282v.246h5.743v-.246c-.985 0-1.887-.164-1.887-1.641a7.781 7.781 0 0 1 .41-1.887l2.544-7.794h6.153l2.954 8.2s0 .164.082.164a5.7 5.7 0 0 1 .328 1.395c0 1.559-1.395 1.395-2.461 1.395v.246h7.634v-.246c-1.149-.082-1.969-.164-3.118-3.364l-7.06-19.44h-4.1zm-.244 10.666l2.707-8.2h.082l2.955 8.2z"/>
    <path d="M-4804.008-86.108a1.777 1.777 0 0 0-1.558 1.308c-.492 1.149-.492 3.364-.492 5.415v1.067a2.931 2.931 0 0 1-.738 2.133 1.591 1.591 0 0 1-1.231.492 2.274 2.274 0 0 1-1.969-1.723v-.41c0-.328-.246-.41-.328-.492v-6.4h-.41v-.324h.41v-.246h-.41v-.328h.41v-.328h-.41v-.329h.41v-.246h-.41v-.41h.41v-.246h-.41v-.41h.41v-.246h-.41v-.329l.41-.082v-.246l-.41.082c0-.082-.082-.164-.082-.328l.41-.164-.164-.246-.492.164c-.082-.082-.082-.164-.164-.246l.246-.246-.164-.164-.246.246a1.133 1.133 0 0 0-.328-.246l.164-.328-.246-.082-.082.328a3.553 3.553 0 0 0-.41-.082v-.329h-.246v.329a.74.74 0 0 0-.41.082l-.082-.328-.246.082.164.246c-.082.082-.246.164-.328.246l-.246-.246-.164.164.246.246c-.082.082-.164.164-.164.246l-.328-.164-.249.326.328.164a.493.493 0 0 0-.082.328l-.41-.082v.246h.41v.328h-.328v.246h.328v.492h-.328v.246h.328v.332h-.328v.246h.328v.328h-.328v.246h.328v.328h-.328v.246h.328v.406h-.328v.328a2.811 2.811 0 0 0-.738.738h-.492a8.29 8.29 0 0 1-1.395.246 1.089 1.089 0 0 1-.82-.246c-.082-.082-.082-.328-.246-.492a.819.819 0 0 0-.41-.328s-.164-.492-.574-.492v-3.688a.459.459 0 0 0 .41-.492c0-.082-.082-.246-.082-.328h.656l.82-2.789a5.406 5.406 0 0 0-.82-.246l-.164.82a1.788 1.788 0 0 0-.492-.082l-.164.9h-.653l.164-.9h-.328l.077-1.149h-1.313l.082 1.149h-.328l.164.9h-.656l-.164-.9a1.758 1.758 0 0 1-.492.082l-.164-.82a5.406 5.406 0 0 0-.82.246l.82 2.789h.574c-.082.082-.082.164-.082.328a.459.459 0 0 0 .41.492v3.856a.59.59 0 0 0-.574.492.819.819 0 0 0-.41.328 2.731 2.731 0 0 1-.246.492c-.082.164-.41.246-.82.246a4.167 4.167 0 0 1-1.395-.246.523.523 0 0 0-.492 0 2.812 2.812 0 0 0-.738-.738v-.328h-.41v-.41h.41v-.246h-.41v-.328h.41v-.328h-.41v-.329h.41v-.246h-.41v-.41h.41v-.246h-.41v-.41h.41v-.246h-.41v-.329l.41-.082v-.246l-.41.082c0-.082-.082-.164-.082-.328l.41-.164-.164-.246-.329.244c-.082-.082-.082-.164-.164-.246l.246-.246-.246-.164-.246.246a1.132 1.132 0 0 0-.328-.246l.164-.328-.246-.082-.082.328a3.553 3.553 0 0 0-.41-.082v-.326h-.246v.328a.74.74 0 0 0-.41.082l-.082-.328-.244.082.164.246a.622.622 0 0 1-.328.164l-.574-.246-.164.164.246.246a.426.426 0 0 0-.164.328l-.328-.164-.168.244.328.164c0 .082-.082.246-.082.328l-.41-.082v.246h.41v.328h-.492v.246h.41v.492h-.41v.246h.41v.332h-.41v.246h.41v.328h-.41v.246h.41v.328h-.41v.246h.41v.406h-.41v6.4c-.082.082-.328.164-.328.492v.41a2.385 2.385 0 0 1-1.969 1.723 1.988 1.988 0 0 1-1.231-.492 2.8 2.8 0 0 1-.738-2.133v-1.063c0-2.133 0-4.266-.492-5.415-.164-.328-.574-1.313-1.559-1.313a.809.809 0 0 0-.82.738.735.735 0 0 0 .738.738.3.3 0 0 0 .246-.082.517.517 0 0 1 .656.246c.492.9.492 3.036.492 4.758v1.393c0 2.625 1.641 3.282 2.625 3.282a2.74 2.74 0 0 0 1.231-.246 3.611 3.611 0 0 1 .82-.164 20.829 20.829 0 0 0 0 3.2 3.42 3.42 0 0 0 .164.492 2.949 2.949 0 0 0-.9.164c-.246.082-.328.082-.41 0a.361.361 0 0 0-.41-.082c-.574.164-.328.9-.246 1.231a4.777 4.777 0 0 1 0 1.559c0 .656.082 1.067.082 1.313.082.574.656.656.985.656a.7.7 0 0 0 .492-.246q.246.123.246.246a.08.08 0 0 0 .082.082c.082-.082.082-.082.082-.246v-.241c.082-.082.082 0 .164-.082a.254.254 0 0 1 .164.082.888.888 0 0 1 .328.41c.082.164.164 0 .246-.164v-.328a.648.648 0 0 1 .41.41c0 .082 0 .164.082.082a.88.88 0 0 0 .164-.492.375.375 0 0 0-.334-.418.717.717 0 0 0-.656-.492h-.41c-.246 0-.738-.082-.738-.328a3.4 3.4 0 0 1-.082-.82c0-.246.246-.492.328-.656a.326.326 0 0 1 .41-.082c.246 0 .985.246 1.477.246.41 0 .82-.328.738-1.231a5.6 5.6 0 0 0 .41-1.887 7.074 7.074 0 0 0-.082-1.395c.164.164.41.164.9.164a1.583 1.583 0 0 0 .82-.246c.246-.082.246 0 .328.164a4.773 4.773 0 0 1-.082 1.395c0 .164 0 .328.164.41a.25.25 0 0 0 .328 0c.164-.082.328 0 .492 0 .246 0 .492-.082.9-.082s1.395.082 1.8.082a.744.744 0 0 0 .738-.492v3.45a.459.459 0 0 0-.41.492.451.451 0 0 0 .246.41h-.656v2.051h4.43V-68.8h-.656a.451.451 0 0 0 .246-.41.52.52 0 0 0-.41-.492v-3.444a.744.744 0 0 0 .738.492c.492 0 1.395-.082 1.8-.082s.656.082.9.082h.492c.164.082.246.082.328 0a.361.361 0 0 0 .082-.41s-.082-.738-.082-1.395c0-.164.082-.246.328-.164a3.126 3.126 0 0 0 .82.246c.492 0 .738 0 .9-.164a7.074 7.074 0 0 0-.082 1.395 5.6 5.6 0 0 0 .41 1.887c-.082.9.328 1.231.738 1.231a3.689 3.689 0 0 0 1.477-.246c.246 0 .328 0 .41.082a1.236 1.236 0 0 1 .328.656 3.078 3.078 0 0 1-.082.82c-.082.246-.492.328-.738.328a.366.366 0 0 0-.41 0 1.157 1.157 0 0 0-.63.488.545.545 0 0 0-.328.41.88.88 0 0 0 .164.492c.082.082.082 0 .082-.082.082-.328.246-.41.41-.41v.328c.082.164.164.246.246.164a.888.888 0 0 1 .328-.41.254.254 0 0 1 .164-.082c.082.082.082 0 .164.082v.246a.3.3 0 0 0 .082.246c.082.082.082.082.082-.082q0-.123.246-.246a.7.7 0 0 0 .492.246.919.919 0 0 0 .984-.656 5.1 5.1 0 0 0 .084-1.308 9.5 9.5 0 0 1 0-1.559c.082-.328.328-1.149-.246-1.231a.361.361 0 0 0-.41.082.366.366 0 0 1-.41 0 2.533 2.533 0 0 0-.9-.164c.082-.082.082-.246.164-.492a20.827 20.827 0 0 0 0-3.2 3.611 3.611 0 0 1 .82.164 2.74 2.74 0 0 0 1.231.246c.985 0 2.625-.656 2.625-3.282v-1.393c0-1.723 0-3.774.492-4.758.164-.328.328-.41.656-.246.082 0 .164.082.246.082a.735.735 0 0 0 .732-.739.81.81 0 0 0-.817-.656zm-17.967 10.008c-.164 0-.41.164-.656.492a.3.3 0 0 0-.246.082c-.246.164-.246.492 0 .82a.254.254 0 0 0-.082.164c0 .082-.082.164-.164.246a1.41 1.41 0 0 1-.574.328 1.63 1.63 0 0 1-.9-.082c-.328-.082-.328-.246-.328-.492a5.432 5.432 0 0 0 .082-1.231.785.785 0 0 0-.41-.738 1.133 1.133 0 0 0-.246-.328 2.194 2.194 0 0 0-1.395-.328 1.623 1.623 0 0 0-1.149.41v-1.229c0-.164 0-.246-.082-.328a.426.426 0 0 1-.164-.328.405.405 0 0 0 .082-.246c.41-.164.328-.41.328-.41a.527.527 0 0 0 .492-.492.55.55 0 0 0 .328-.574.3.3 0 0 0 .164-.246c0-.082.082-.492.082-.574s.164-.246.246-.41a2.909 2.909 0 0 1 1.313-.492h.328a4.335 4.335 0 0 0 .985-.082q.615-.123.738 0a.93.93 0 0 1 .492.492s.246.492.656.492v5c.164.084.08.084.08.084zm8.943-2.133c-.082.082-.082.164-.082.328v1.231c-.164-.246-.738-.328-1.149-.41a2.194 2.194 0 0 0-1.395.328c-.082.082-.246.246-.246.328-.328.082-.41.492-.41.738 0 .41.082.985.082 1.231.082.246 0 .41-.328.492a3.365 3.365 0 0 1-.9.082 1.042 1.042 0 0 1-.574-.328c0-.082-.082-.164-.164-.246 0-.082 0-.164-.082-.164a.622.622 0 0 0 0-.82.3.3 0 0 0-.246-.082c-.246-.328-.492-.492-.656-.492h-.082v-5c.41 0 .656-.492.656-.492a.93.93 0 0 1 .492-.492c.164-.082.328-.082.738 0a4.708 4.708 0 0 0 .985.082h.328a3.761 3.761 0 0 1 1.313.492.7.7 0 0 1 .246.41c0 .164 0 .492.082.574a1.015 1.015 0 0 0 .164.246.517.517 0 0 0 .328.574.527.527 0 0 0 .492.492s-.164.246.328.41a.405.405 0 0 0 .082.246c.162.075.08.161-.002.243zm1.559 10.5zm-18.213 0zm1.559-18.706a.08.08 0 0 1 .082.082s.082.082 0 .082l-.082.574a.08.08 0 0 1-.082.082h-.246a.08.08 0 0 0-.082.082l-.164.246h-.082l-.082-.246-.082-.082h-.244a.08.08 0 0 1-.082-.082l-.082-.574v-.08s.082-.082.082 0a5.045 5.045 0 0 0 1.145-.082zm-.574-1.641h-.328a.08.08 0 0 1-.082-.082v-.326a.08.08 0 0 0-.08-.082h-.656v-.082a1.139 1.139 0 0 1 2.133 0v.082h-.656a.08.08 0 0 0-.082.082v.41a.08.08 0 0 1-.082.082h-.164zm0 .738c0-.164.164-.246.246-.328s.164-.164.164-.246a1.387 1.387 0 0 1 .164.738c0 .328-.164.492-.328.492s-.328-.082-.328-.246c0 .164-.164.246-.328.246s-.328-.164-.328-.492a1.387 1.387 0 0 1 .164-.738c0 .082.082.246.164.246.246.082.41.164.41.328m16.737.9h.082v.742a.08.08 0 0 1-.082.082h-.246a.08.08 0 0 0-.082.082l-.164.246h-.082l-.164-.246-.082-.082h-.246a.08.08 0 0 1-.082-.082l-.082-.574v-.081l.082-.082a2.681 2.681 0 0 0 1.146 0zm-.82-1.641l-.082-.41a.08.08 0 0 0-.082-.082h-.574v-.077a1.139 1.139 0 0 1 2.133 0v.082h-.656a.08.08 0 0 0-.082.082v.41a.08.08 0 0 1-.082.082h-.582zm1.067 0a.615.615 0 0 0 .41-.082s.082-.082.082.246a.99.99 0 0 1-.246.656 1.187 1.187 0 0 0-.249-.814zm-1.723.82a.99.99 0 0 1-.246-.656c0-.41.082-.246.082-.246a.615.615 0 0 0 .41.082 1.187 1.187 0 0 0-.248.826zm-14.521-.82a.615.615 0 0 0 .41-.082s.082-.082.082.246a.99.99 0 0 1-.246.656.859.859 0 0 0-.249-.814zm-1.723.82a.99.99 0 0 1-.246-.656c0-.41.082-.246.082-.246a.615.615 0 0 0 .41.082 1.187 1.187 0 0 0-.253.826zm17.229-.082c0-.164.164-.246.246-.328s.164-.164.164-.246a1.387 1.387 0 0 1 .164.738c0 .328-.164.492-.328.492s-.328-.082-.328-.246c0 .164-.164.246-.328.246s-.328-.164-.328-.492a1.387 1.387 0 0 1 .164-.738c0 .082.082.246.164.246.246.082.41.164.41.328"/>
  </g>
</svg>
