<svg version="1.1" id="Layer_1" xmlns="http://www.w3.org/2000/svg" xmlns:xlink="http://www.w3.org/1999/xlink" x="0px" y="0px"
	 viewBox="100 100 850 850" xml:space="preserve">
<style type="text/css">
	.st1{fill-rule:evenodd;clip-rule:evenodd;fill:#211F1F;}
</style>
	<path class="st1" d="M689.56,309.33c-50.3-50.35-117.18-78.1-188.44-78.13c-146.83,0-266.34,119.5-266.4,266.37
		c-0.02,46.95,12.25,92.78,35.56,133.18L232.49,768.8l141.22-37.04c38.91,21.22,82.72,32.41,127.3,32.42h0.11c0.01,0-0.01,0,0,0
		c146.82,0,266.33-119.51,266.39-266.39C767.54,426.61,739.86,359.68,689.56,309.33z M501.12,719.19h-0.09
		c-39.73-0.02-78.7-10.69-112.7-30.86l-8.08-4.8l-83.8,21.98l22.37-81.71l-5.27-8.38c-22.16-35.25-33.87-76-33.85-117.83
		c0.05-122.08,99.38-221.4,221.51-221.4c59.14,0.02,114.73,23.08,156.54,64.93c41.8,41.85,64.81,97.48,64.79,156.65
		C722.48,619.86,623.16,719.19,501.12,719.19z"/>
</svg>
