<svg version="1.1" id="Layer_1" xmlns="http://www.w3.org/2000/svg" xmlns:xlink="http://www.w3.org/1999/xlink" x="0px" y="0px"
	 viewBox="100 100 850 850" xml:space="preserve">
<style type="text/css">
	.st1{fill-rule:evenodd;clip-rule:evenodd;fill:#211F1F;}
</style>
<path class="st1" d="M721.14,596.84c-12.11-6.06-71.65-35.36-82.75-39.4c-11.1-4.04-19.18-6.06-27.25,6.06
		c-8.07,12.12-31.28,39.4-38.35,47.49c-7.06,8.08-14.13,9.1-26.24,3.03c-12.11-6.06-51.13-18.85-97.39-60.11
		c-36-32.12-60.31-71.77-67.37-83.9c-7.06-12.12-0.75-18.68,5.31-24.72c5.45-5.43,12.11-14.14,18.17-21.22
		c6.05-7.07,8.07-12.12,12.11-20.2c4.04-8.08,2.02-15.16-1.01-21.22c-3.03-6.06-27.25-65.67-37.34-89.93
		c-9.83-23.61-19.82-20.41-27.25-20.79c-7.05-0.35-15.14-0.42-23.21-0.42c-8.07,0-21.2,3.03-32.29,15.15
		c-11.1,12.13-42.39,41.43-42.39,101.03c0,59.61,43.4,117.2,49.45,125.28c6.05,8.09,85.4,130.41,206.89,182.87
		c28.89,12.48,51.46,19.93,69.04,25.51c29.01,9.22,55.42,7.92,76.28,4.8c23.27-3.48,71.65-29.3,81.75-57.58
		c10.09-28.29,10.09-52.54,7.06-57.59C741.33,605.94,733.25,602.9,721.14,596.84z"/>
</svg>
